<?xml version="1.0" encoding="UTF-8"?><svg id="Ebene_2" xmlns="http://www.w3.org/2000/svg" viewBox="0 0 20 20"><defs><style>.cls-1{fill:#ffffff;stroke-width:0px;}</style></defs><path class="cls-1" d="m9.5.87v18.26c-.69-.04-1.36-.15-2-.34-2.94-.83-5.27-3.09-6.2-5.99l1.9-.61c.67,2.08,2.27,3.74,4.3,4.49V3.32c-.8.29-1.54.73-2.17,1.28l-1.3-1.51c.99-.87,2.17-1.52,3.47-1.88.64-.19,1.31-.3,2-.34Z"/><path class="cls-1" d="m17.64,4.98v10.04c-.55.83-1.22,1.56-2,2.17-.59.46-1.92,1.16-1.92,1.16l-3.22-3.22V.87c.69.04,1.36.15,2,.34v13.08l1.57,1.57c.6-.41,1.13-.92,1.57-1.49V2.82c.78.6,1.45,1.33,2,2.16Z"/></svg>